<svg width="50.000015" height="28.000000" viewBox="0 0 50 28" fill="none" xmlns="http://www.w3.org/2000/svg" xmlns:xlink="http://www.w3.org/1999/xlink">
	<desc>
			Created with Pixso.
	</desc>
	<defs/>
	<path id="Vector" d="M18.8 26.3C17.28 26.3 17.42 25.93 17.01 25.01L12.59 15.32L46.4 2.04L18.8 26.3Z" fill="#C8DAEA" fill-opacity="1.000000" fill-rule="nonzero"/>
	<path id="Vector" d="M18.8 26.3C19.77 26.3 20.32 25.93 21.01 25.56L27.22 21.6L19.49 18.46L18.8 26.3Z" fill="#A9C9DD" fill-opacity="1.000000" fill-rule="nonzero"/>
	<path id="Vector" d="M19.49 18.46L38.12 27.59C40.05 28.42 41.71 27.96 42.26 26.3L49.85 2.5C50.54 0.48 48.61 -0.45 46.54 0.2L2.24 11.64C-0.66 12.37 -0.66 13.57 1.69 14.03L13.14 16.43L39.36 5.27C40.61 4.81 41.71 4.99 40.88 5.64L19.49 18.46Z" fill="#F6FBFE" fill-opacity="1.000000" fill-rule="nonzero"/>
</svg>
