<svg width="32.468815" height="34.739258" viewBox="0 0 32.4688 34.7393" fill="none" xmlns="http://www.w3.org/2000/svg" xmlns:xlink="http://www.w3.org/1999/xlink">
	<desc>
			Created with Pixso.
	</desc>
	<defs/>
	<path id="Vector" d="M7.85 31.35C7.85 30.77 7.85 30.19 7.85 29.61C7.86 29.58 7.85 29.56 7.85 29.54C7.84 29.51 7.83 29.49 7.82 29.47C7.8 29.45 7.78 29.44 7.76 29.43C7.74 29.41 7.72 29.41 7.69 29.4C6.24 28.99 4.9 28.27 3.77 27.27C2.94 26.53 2.26 25.65 1.74 24.67C1.01 23.26 0.53 21.74 0.31 20.17C0.04 18.2 -0.06 16.21 0.02 14.22C0.04 13.3 0.09 12.38 0.2 11.46C0.37 9.7 0.81 7.97 1.52 6.35C2.4 4.36 3.99 2.76 5.99 1.86C7.35 1.24 8.78 0.79 10.25 0.52C11.7 0.25 13.16 0.08 14.62 0.02C15.95 -0.03 17.27 -0.01 18.59 0.08C20.48 0.16 22.35 0.47 24.16 1C25.51 1.38 26.79 1.97 27.96 2.72C29.1 3.5 30.02 4.55 30.64 5.78C31.37 7.21 31.86 8.75 32.1 10.33C32.26 11.27 32.36 12.22 32.41 13.18C32.48 14.36 32.47 15.54 32.43 16.72C32.38 17.9 32.28 19.04 32.14 20.19C31.95 21.92 31.42 23.59 30.56 25.11C29.45 27.03 27.66 28.48 25.54 29.19C24.09 29.69 22.6 30.05 21.08 30.26C19.96 30.41 18.85 30.52 17.73 30.56C16.87 30.6 16.01 30.59 15.16 30.58C14.67 30.58 14.19 30.53 13.7 30.49C13.66 30.48 13.61 30.49 13.56 30.51C13.52 30.52 13.48 30.56 13.46 30.6C12.48 31.76 11.46 32.89 10.44 34.01C10.26 34.22 10.04 34.4 9.8 34.54C9.65 34.64 9.47 34.71 9.28 34.73C9.1 34.75 8.91 34.72 8.73 34.66C8.56 34.6 8.4 34.49 8.27 34.36C8.15 34.22 8.05 34.06 8 33.88C7.9 33.56 7.85 33.23 7.85 32.9C7.85 32.38 7.85 31.87 7.85 31.35ZM9.03 33.56L9.16 33.44L11.37 31.01C12.23 30.07 13.08 29.13 13.93 28.19C13.97 28.13 14.03 28.09 14.09 28.06C14.16 28.03 14.23 28.02 14.3 28.03C14.59 28.05 14.88 28.06 15.17 28.07C16.18 28.07 17.19 28.07 18.2 28C19.12 27.93 20.03 27.81 20.94 27.67C21.91 27.5 22.88 27.28 23.84 27.01C25.96 26.45 27.6 25.24 28.64 23.28C29.24 22.07 29.63 20.77 29.76 19.43C29.92 18.16 30.02 16.89 30.05 15.62C30.1 14.02 29.99 12.42 29.72 10.84C29.54 9.69 29.21 8.58 28.74 7.52C28.14 6.2 27.29 5.11 25.98 4.41C23.97 3.34 21.8 2.86 19.56 2.62C18.93 2.55 18.29 2.51 17.66 2.49C16.35 2.42 15.04 2.43 13.74 2.51C12.8 2.58 11.87 2.7 10.95 2.88C9.59 3.13 8.28 3.57 7.05 4.2C6.34 4.55 5.7 5.03 5.15 5.6C4.25 6.59 3.6 7.76 3.23 9.04C2.79 10.53 2.55 12.06 2.52 13.61C2.44 15.16 2.45 16.71 2.58 18.26C2.66 19.18 2.81 20.09 3.04 20.98C3.39 22.37 4.06 23.67 5 24.76C6.01 25.87 7.32 26.68 8.78 27.08C8.96 27.14 9.05 27.2 9.05 27.41C9.03 28.16 9.05 28.92 9.05 29.68L9.03 33.56Z" fill="#FFFFFF" fill-opacity="1.000000" fill-rule="nonzero"/>
	<path id="Vector" d="M7.17 10.07C7.16 9.49 7.47 9.07 7.85 8.69C8.36 8.22 8.91 7.79 9.51 7.43C9.78 7.27 10.11 7.21 10.42 7.26C10.74 7.31 11.02 7.47 11.23 7.71C11.95 8.47 12.6 9.29 13.16 10.16C13.44 10.56 13.65 10.99 13.78 11.46C13.83 11.64 13.84 11.83 13.79 12.01C13.74 12.19 13.65 12.36 13.51 12.49C13.21 12.79 12.88 13.07 12.54 13.32C12.36 13.46 12.23 13.64 12.17 13.85C12.1 14.06 12.09 14.29 12.15 14.5C12.37 15.49 12.85 16.41 13.55 17.15C14.4 18.18 15.49 18.98 16.73 19.49C17.04 19.64 17.39 19.69 17.72 19.62C17.91 19.57 18.07 19.47 18.19 19.32C18.38 19.08 18.58 18.86 18.74 18.61C18.96 18.3 19.29 18.08 19.67 18.01C20.04 17.94 20.43 18.01 20.75 18.22C21.65 18.73 22.5 19.33 23.29 20.01C23.47 20.16 23.67 20.32 23.85 20.48C24.07 20.64 24.23 20.88 24.31 21.14C24.38 21.4 24.36 21.68 24.26 21.94C24.1 22.37 23.86 22.76 23.55 23.11C23.18 23.63 22.7 24.06 22.14 24.39C21.88 24.54 21.58 24.63 21.28 24.65C20.97 24.67 20.66 24.62 20.38 24.5C18.23 23.65 16.23 22.48 14.43 21.03C12.67 19.6 11.13 17.91 9.86 16.04C8.79 14.48 7.95 12.79 7.34 11.01C7.27 10.79 7.22 10.58 7.18 10.35C7.17 10.26 7.17 10.16 7.17 10.07Z" fill="#FFFFFF" fill-opacity="1.000000" fill-rule="nonzero"/>
	<path id="Vector" d="M16.34 7.27C18.14 7.3 19.87 7.96 21.22 9.12C22.58 10.29 23.48 11.89 23.77 13.65C23.89 14.29 23.95 14.93 23.96 15.58C23.96 15.74 23.92 15.85 23.76 15.86C23.59 15.88 23.55 15.74 23.55 15.6C23.57 14.29 23.3 12.98 22.75 11.79C22.29 10.81 21.6 9.94 20.75 9.26C19.9 8.59 18.9 8.11 17.83 7.88C17.26 7.75 16.68 7.69 16.1 7.68C16.05 7.68 15.99 7.68 15.94 7.66C15.89 7.65 15.85 7.62 15.83 7.58C15.8 7.54 15.8 7.49 15.81 7.44C15.81 7.42 15.81 7.4 15.82 7.38C15.83 7.36 15.84 7.34 15.86 7.32C15.87 7.31 15.89 7.3 15.91 7.29C15.94 7.28 15.96 7.28 15.98 7.28C16.1 7.26 16.22 7.27 16.34 7.27Z" fill="#FFFFFF" fill-opacity="1.000000" fill-rule="nonzero"/>
	<path id="Vector" d="M21.47 14.4C21.46 13.67 21.27 12.95 20.93 12.3C20.59 11.65 20.11 11.09 19.51 10.66C18.81 10.18 18 9.88 17.15 9.79C17.01 9.77 16.86 9.76 16.72 9.75C16.57 9.73 16.48 9.67 16.5 9.52C16.51 9.38 16.6 9.32 16.76 9.33C19.12 9.48 21.12 10.79 21.73 13.25C21.85 13.72 21.9 14.21 21.9 14.69L21.9 14.82C21.9 14.95 21.82 15.04 21.69 15.04C21.66 15.04 21.63 15.03 21.6 15.02C21.58 15.01 21.55 14.99 21.53 14.97C21.51 14.95 21.5 14.92 21.49 14.89C21.48 14.87 21.48 14.84 21.48 14.81C21.46 14.69 21.47 14.56 21.47 14.4Z" fill="#FFFFFF" fill-opacity="1.000000" fill-rule="nonzero"/>
	<path id="Vector" d="M17.34 11.47C18.63 11.56 19.53 12.18 19.78 13.54C19.81 13.72 19.83 13.89 19.84 14.07C19.84 14.21 19.81 14.33 19.66 14.33C19.5 14.33 19.45 14.23 19.44 14.07C19.44 13.55 19.28 13.04 18.98 12.61C18.66 12.22 18.21 11.97 17.71 11.91C17.6 11.89 17.48 11.87 17.37 11.86C17.18 11.86 17.08 11.77 17.11 11.63C17.13 11.49 17.24 11.46 17.34 11.47Z" fill="#FFFFFF" fill-opacity="1.000000" fill-rule="nonzero"/>
</svg>
