<svg width="34.000000" height="18.000000" viewBox="0 0 34 18" fill="none" xmlns="http://www.w3.org/2000/svg" xmlns:xlink="http://www.w3.org/1999/xlink">
	<desc>
			Created with Pixso.
	</desc>
	<defs/>
	<path id="Vector" d="M33.21 1.21C33.45 0.51 33.21 0 32.09 0L28.37 0C27.42 0 26.99 0.44 26.75 0.93C26.75 0.93 24.86 5.04 22.18 7.71C21.31 8.49 20.92 8.73 20.45 8.73C20.21 8.73 19.87 8.49 19.87 7.78L19.87 1.21C19.87 0.37 19.59 0 18.81 0L12.96 0C12.37 0 12.01 0.39 12.01 0.76C12.01 1.56 13.35 1.74 13.49 3.99L13.49 8.87C13.49 9.94 13.28 10.14 12.8 10.14C11.54 10.14 8.47 6.01 6.65 1.28C6.3 0.37 5.94 0 4.99 0L1.27 0C0.21 0 0 0.44 0 0.93C0 1.81 1.26 6.17 5.87 11.93C8.94 15.86 13.27 18 17.21 18C19.58 18 19.87 17.52 19.87 16.71L19.87 13.73C19.87 12.78 20.09 12.6 20.84 12.6C21.39 12.6 22.34 12.84 24.55 14.74C27.07 16.99 27.48 18 28.9 18L32.62 18C33.68 18 34.22 17.52 33.91 16.59C33.57 15.65 32.37 14.3 30.77 12.7C29.9 11.79 28.6 10.8 28.21 10.31C27.66 9.68 27.82 9.4 28.21 8.84C28.21 8.84 32.74 3.15 33.21 1.21Z" fill="#FFFFFF" fill-opacity="1.000000" fill-rule="evenodd"/>
</svg>
