<svg width="34.674644" height="34.674683" viewBox="0 0 34.6746 34.6747" fill="none" xmlns="http://www.w3.org/2000/svg" xmlns:xlink="http://www.w3.org/1999/xlink">
	<desc>
			Created with Pixso.
	</desc>
	<defs/>
	<path id="Vector" d="M29.47 4.98C26.22 1.73 21.88 0 17.33 0C7.8 0 0 7.8 0 17.33C0 20.37 0.86 23.4 2.38 26L0 34.67L9.1 32.29C11.7 33.59 14.52 34.45 17.33 34.45C26.87 34.45 34.67 26.65 34.67 17.12C34.67 12.56 32.72 8.23 29.47 4.98ZM17.33 31.64C14.73 31.64 12.13 30.99 9.96 29.69L9.53 29.47L4.11 30.99L5.63 25.78L5.2 25.13C3.68 22.75 3.03 20.15 3.03 17.55C3.03 9.75 9.53 3.25 17.33 3.25C21.23 3.25 24.7 4.76 27.52 7.36C30.34 10.18 31.64 13.65 31.64 17.55C31.64 25.13 25.35 31.64 17.33 31.64ZM25.13 20.8C24.7 20.58 22.53 19.5 22.1 19.5C21.67 19.28 21.45 19.28 21.23 19.72C21.02 20.15 20.15 21.02 19.93 21.45C19.72 21.67 19.5 21.67 19.07 21.67C18.63 21.45 17.33 21.02 15.6 19.5C14.3 18.42 13.43 16.9 13.21 16.47C13 16.03 13.21 15.82 13.43 15.6C13.65 15.38 13.86 15.17 14.08 14.95C14.3 14.73 14.3 14.52 14.52 14.3C14.73 14.08 14.52 13.86 14.52 13.65C14.52 13.43 13.65 11.26 13.21 10.4C13 9.75 12.56 9.75 12.35 9.75C12.13 9.75 11.91 9.75 11.48 9.75C11.26 9.75 10.83 9.75 10.4 10.18C9.96 10.61 8.88 11.7 8.88 13.86C8.88 16.03 10.4 17.98 10.61 18.42C10.83 18.63 13.65 23.18 17.98 24.92C21.67 26.43 22.32 26 23.18 26C24.05 26 25.78 24.92 26 24.05C26.43 22.97 26.43 22.1 26.22 22.1C26 21.02 25.57 21.02 25.13 20.8Z" fill="#FFFFFF" fill-opacity="1.000000" fill-rule="evenodd"/>
</svg>
